<!-- Generated by IcoMoon.io -->
<svg version="1.1" xmlns="http://www.w3.org/2000/svg" width="1024" height="1024" viewBox="0 0 1024 1024">
<title></title>
<g id="icomoon-ignore">
</g>
<path fill="#005571" d="M919.467 715.52c0.001 0.254 0.001 0.554 0.001 0.855 0 168.248-136.392 304.64-304.64 304.64-0.3 0-0.601 0-0.901-0.001h-509.394v-305.493h356.693c157-0.561 293.15-89.272 361.591-219.199l1.076-2.241c58.892 55.329 95.574 133.709 95.574 220.657 0 0.275 0 0.551-0.001 0.826v-0.043zM738.56 436.907c17.658-37.692 28.021-81.832 28.16-128.378v-0.049c0.001-0.254 0.001-0.555 0.001-0.856 0-168.248-136.392-304.64-304.64-304.64-0.451 0-0.901 0.001-1.351 0.003h-355.77v610.987h356.267c123.733 0 229.12-72.533 277.333-177.067z"></path>
</svg>
