<svg xmlns="http://www.w3.org/2000/svg" version="1.1" xmlns:xlink="http://www.w3.org/1999/xlink" xmlns:svgjs="http://svgjs.dev/svgjs" width="1000" height="999" viewBox="0 0 1000 999"><g transform="matrix(1,0,0,1,-0.2157434402332683,-0.21552769679306039)"><svg viewBox="0 0 343 343" data-background-color="#ffffff" preserveAspectRatio="xMidYMid meet" height="999" width="1000" xmlns="http://www.w3.org/2000/svg" xmlns:xlink="http://www.w3.org/1999/xlink"><g id="tight-bounds" transform="matrix(1,0,0,1,0.07400000000001228,0.07400000000001228)"><svg viewBox="0 0 342.8515585177538 342.8515585177538" height="342.8515585177538" width="342.8515585177538"><g><svg></svg></g><g><svg viewBox="0 0 342.8515585177538 342.8515585177538" height="342.8515585177538" width="342.8515585177538"><g><path d="M0 171.426c0-94.676 76.75-171.426 171.426-171.426 94.676 0 171.426 76.75 171.426 171.426 0 94.676-76.75 171.426-171.426 171.426-94.676 0-171.426-76.75-171.426-171.426zM171.426 338.618c92.338 0 167.192-74.854 167.192-167.192 0-92.338-74.854-167.192-167.192-167.192-92.338 0-167.192 74.854-167.192 167.192 0 92.338 74.854 167.192 167.192 167.192z" data-fill-palette-color="tertiary" fill="#e2c113" stroke="transparent"></path><ellipse rx="164.56874808852183" ry="164.56874808852183" cx="171.4257792588769" cy="171.4257792588769" fill="#e2c113" stroke="transparent" stroke-width="0" fill-opacity="1" data-fill-palette-color="tertiary"></ellipse></g><g transform="matrix(1,0,0,1,64.84655864529836,77.53206970902637)"><svg viewBox="0 0 213.15844122715708 187.78741909970105" height="187.78741909970105" width="213.15844122715708"><g><svg viewBox="0 0 213.15844122715708 187.78741909970105" height="187.78741909970105" width="213.15844122715708"><g><svg viewBox="0 0 213.15844122715708 187.78741909970105" height="187.78741909970105" width="213.15844122715708"><g transform="matrix(1,0,0,1,0,140.84145629806903)"><svg viewBox="0 0 213.15844122715708 46.94596280163203" height="46.94596280163203" width="213.15844122715708"><g id="textblocktransform"><svg viewBox="0 0 213.15844122715708 46.94596280163203" height="46.94596280163203" width="213.15844122715708" id="textblock"><g><svg viewBox="0 0 213.15844122715708 46.94596280163203" height="46.94596280163203" width="213.15844122715708"><g transform="matrix(1,0,0,1,0,0)"><svg width="213.15844122715708" viewBox="1.25 -39 179.34 39.5" height="46.94596280163203" data-palette-color="#883d1a"><path d="M17.15 0.45L17.15 0.45Q13.4 0.45 10.7-0.2 8-0.85 5.8-2.5L5.8-2.5Q1.25-5.8 1.25-14.8L1.25-14.8Q1.25-22.8 5.9-26.25L5.9-26.25Q10.25-29.45 17.15-29.45L17.15-29.45Q20.1-29.45 22.2-29.18 24.3-28.9 26.48-28 28.65-27.1 29.98-25.55 31.3-24 32.15-21.28 33-18.55 33-14.8L33-14.8Q33-7.2 28.7-3.38 24.4 0.45 17.15 0.45ZM15.4-9.3Q15.75-7.5 16.13-7.15 16.5-6.8 17.13-6.8 17.75-6.8 18.13-7.15 18.5-7.5 18.82-9.3 19.15-11.1 19.15-13.83 19.15-16.55 19.03-18.03 18.9-19.5 18.73-20.3 18.55-21.1 18.25-21.55L18.25-21.55Q17.8-22.2 17.18-22.2 16.55-22.2 16.15-21.83 15.75-21.45 15.4-19.63 15.05-17.8 15.05-14.45 15.05-11.1 15.4-9.3ZM49.5-36.7L49.5-36.7 49.5-1.2Q49.5-0.65 46.65-0.33 43.8 0 40.77 0 37.75 0 36.87-0.28 36-0.55 36-1.2L36-1.2 36-35.8Q36-36.9 38.82-37.95 41.65-39 44.9-39L44.9-39Q49.5-39 49.5-36.7ZM62.4 0.45L62.4 0.45Q60.55 0.45 58.95-0.1 57.35-0.65 56.32-1.45 55.3-2.25 54.55-3.6 53.8-4.95 53.4-6.18 53-7.4 52.8-9.2L52.8-9.2Q52.5-11.85 52.5-15.25L52.5-15.25Q52.5-22.2 55.05-25.83 57.6-29.45 62.05-29.45L62.05-29.45Q66.59-29.45 68.65-27.3L68.65-27.3Q69.09-26.8 69.34-26.1L69.34-26.1 69.75-26.1 69.15-29.55 69.15-35.8Q69.15-36.9 71.95-37.95 74.75-39 78-39L78-39Q81.4-39 82.34-37.7L82.34-37.7Q82.7-37.2 82.7-36.7L82.7-36.7 82.7-1.2Q82.7-0.65 79.92-0.33 77.15 0 74.57 0 72 0 71.27-0.18 70.55-0.35 70.37-0.55 70.2-0.75 70.15-1.2L70.15-1.2 69.75-4.05 69.34-4.05Q68.9-2.3 67.55-1.1L67.55-1.1Q65.84 0.45 62.4 0.45ZM68-6.85L68-6.85Q68.8-6.85 69.2-7.85L69.2-7.85 69.2-21.2Q69.2-21.7 68.67-21.98 68.15-22.25 67.75-22.25L67.75-22.25Q66.05-22.25 66.05-14.45L66.05-14.45Q66.05-10.3 66.52-8.58 67-6.85 68-6.85ZM88.94-0.5L88.94-0.5Q86.19-1.2 86.19-2.6L86.19-2.6 86.19-34.3Q86.19-35.4 89.14-36.45 92.09-37.5 95.34-37.5L95.34-37.5Q99.74-37.5 99.74-35.2L99.74-35.2 99.74-29.55 99.19-26.1 99.59-26.1Q99.89-26.55 100.72-27.2 101.54-27.85 102.44-28.3L102.44-28.3Q104.64-29.45 107.29-29.45 109.94-29.45 111.47-28.78 112.99-28.1 113.92-27.03 114.84-25.95 115.39-24.3L115.39-24.3Q116.34-21.45 116.34-17.2L116.34-17.2Q116.34-10.15 114.74-6.4 113.14-2.65 109.54-1.1 105.94 0.45 99.39 0.45 92.84 0.45 88.94-0.5ZM99.69-22.25L99.69-6.9 101.24-6.9Q102.84-6.9 102.84-14.58 102.84-22.25 101.19-22.25L101.19-22.25 99.69-22.25ZM134.39-11.3L132.74-11.3Q132.74-8.05 135.84-8.05L135.84-8.05Q137.64-8.05 140.54-9.28 143.44-10.5 143.59-10.5L143.59-10.5Q144.54-10.5 146.09-7.65 147.64-4.8 147.64-3.45L147.64-3.45Q147.64-1.5 143.64-0.5 139.64 0.5 135.81 0.5 131.99 0.5 129.41-0.1 126.84-0.7 125.22-1.63 123.59-2.55 122.37-3.9 121.14-5.25 120.54-6.48 119.94-7.7 119.59-9.2L119.59-9.2Q119.09-11.4 119.09-13.75L119.09-13.75Q119.09-22.85 123.84-26.3L123.84-26.3Q126.19-28.05 129.09-28.75 131.99-29.45 135.94-29.45L135.94-29.45Q148.59-29.45 148.59-20.65L148.59-20.65Q148.59-11.3 134.39-11.3L134.39-11.3ZM132.64-18.6L132.64-18.6 132.64-15.3Q134.09-15.3 135.02-16.45 135.94-17.6 135.94-19.25L135.94-19.25Q135.94-22.25 134.39-22.25L134.39-22.25Q132.64-22.25 132.64-18.6ZM166.39-11.3L164.74-11.3Q164.74-8.05 167.84-8.05L167.84-8.05Q169.64-8.05 172.54-9.28 175.44-10.5 175.59-10.5L175.59-10.5Q176.54-10.5 178.09-7.65 179.64-4.8 179.64-3.45L179.64-3.45Q179.64-1.5 175.64-0.5 171.64 0.5 167.81 0.5 163.99 0.5 161.41-0.1 158.84-0.7 157.21-1.63 155.59-2.55 154.36-3.9 153.14-5.25 152.54-6.48 151.94-7.7 151.59-9.2L151.59-9.2Q151.09-11.4 151.09-13.75L151.09-13.75Q151.09-22.85 155.84-26.3L155.84-26.3Q158.19-28.05 161.09-28.75 163.99-29.45 167.94-29.45L167.94-29.45Q180.59-29.45 180.59-20.65L180.59-20.65Q180.59-11.3 166.39-11.3L166.39-11.3ZM164.64-18.6L164.64-18.6 164.64-15.3Q166.09-15.3 167.01-16.45 167.94-17.6 167.94-19.25L167.94-19.25Q167.94-22.25 166.39-22.25L166.39-22.25Q164.64-22.25 164.64-18.6Z" opacity="1" transform="matrix(1,0,0,1,0,0)" fill="#883d1a" class="undefined-text-0" data-fill-palette-color="quaternary" id="text-0"></path></svg></g></svg></g></svg></g></svg></g><g transform="matrix(1,0,0,1,34.374031104741746,0)"><svg viewBox="0 0 144.4103790176736 129.75864118371095" height="129.75864118371095" width="144.4103790176736"><g><svg xmlns="http://www.w3.org/2000/svg" xmlns:xlink="http://www.w3.org/1999/xlink" version="1.1" x="0" y="0" viewBox="1.6165235823033894 5.312084950420108 96.60707536238601 86.80541463173783" enable-background="new 0 0 100 100" xml:space="preserve" height="129.75864118371095" width="144.4103790176736" class="icon-icon-0" data-fill-palette-color="quaternary" id="icon-0"><g fill="#883d1a" data-fill-palette-color="quaternary"><g fill="#883d1a" data-fill-palette-color="quaternary"><path fill-rule="evenodd" clip-rule="evenodd" d="M37.094 26.532c8.682-0.118 11.859-5.741 13.2-13.2-0.266-1.109-1.714-1.036-1.237-2.887 0.682-0.602 1.151-0.876 2.269-0.619 1.038 1.202 0.298 3.145 0 4.537-1.634 7.623-5.793 14.504-16.088 12.994 1.448 2.671 2.802 4.979 2.888 8.662 0.149 6.431-3.228 12.097-7.219 16.087-3.96 3.96-9.394 7.381-16.087 7.219-7.438-0.18-13.041-5.266-13.2-13.2C1.504 40.382 4.31 35.018 7.188 31.688c4.428-5.124 14.506-11.797 23.719-7.425 0.897 0.426 2.227 1.771 3.3 1.856 2.058 0.164 5.426-2.358 6.806-4.125 2.578-3.301 2.743-8.61 1.444-13.2-0.501-0.764-1.864-0.376-2.063-1.65-0.132-0.846 0.897-2.354 2.269-1.65 0.895 0.459 1.869 6.592 1.856 8.869C44.484 20.581 40.839 24.587 37.094 26.532zM18.944 32.307c-1.15 4.996 6.015 4.675 5.775 0.619-0.109-1.847-1.178-2.952-3.506-2.475C19.771 30.746 19.083 31.698 18.944 32.307z" fill="#883d1a" data-fill-palette-color="quaternary"></path><path fill-rule="evenodd" clip-rule="evenodd" d="M95.05 27.769c-14.16-9.307-38.764-5.076-45.994 7.219 0.499-2.403 1.872-4.779 3.299-7.012 4.317-6.751 11.514-14.115 21.656-14.85C84.864 12.339 91.754 19.855 95.05 27.769z" fill="#883d1a" data-fill-palette-color="quaternary"></path><path fill-rule="evenodd" clip-rule="evenodd" d="M87.418 71.494c-0.114-10.389-5.282-17.452-11.344-23.513-6.513-6.513-16.751-12.137-27.843-9.075-0.87 0.035 0.003-0.317 0-0.619 7.003-5.714 15.332-11.902 27.225-11.962 12.203-0.063 21.792 7.351 22.688 18.975C98.962 55.93 93.342 66.142 87.418 71.494z" fill="#883d1a" data-fill-palette-color="quaternary"></path><path fill-rule="evenodd" clip-rule="evenodd" d="M52.975 42.619c0.771 0.125-0.314 0.821-0.619 1.237-5.28 7.235-11.419 14.906-18.768 20.213-0.777-1.768-0.838-4.25-0.825-6.807 4.137-3.563 7.602-7.798 9.281-13.818C44.964 42.516 49.413 41.621 52.975 42.619z" fill="#883d1a" data-fill-palette-color="quaternary"></path><path fill-rule="evenodd" clip-rule="evenodd" d="M60.193 44.682c2.78 1.139 5.157 2.68 7.425 4.331-7.716 10.983-16.427 20.973-27.637 28.463-1.271-1.548-2.507-3.131-3.3-5.156C46.61 65.198 55.675 57.213 60.193 44.682z" fill="#883d1a" data-fill-palette-color="quaternary"></path><path fill-rule="evenodd" clip-rule="evenodd" d="M72.568 53.551c2.364 1.966 3.934 4.729 5.775 7.218-7.53 10.414-15.438 20.449-26.606 27.226-2.238-1.406-4.26-3.027-6.394-4.538C57.194 76.264 67.255 67.281 72.568 53.551z" fill="#883d1a" data-fill-palette-color="quaternary"></path><path fill-rule="evenodd" clip-rule="evenodd" d="M81.644 69.638c1.15 1.996 1.231 5.982 0.825 8.869-1.061 1.136-2.343 1.897-3.507 2.887-3.222 2.74-6.344 5.979-8.25 10.313-2.721 0.574-6.337 0.52-9.075 0C69.601 85.645 76.797 78.816 81.644 69.638z" fill="#883d1a" data-fill-palette-color="quaternary"></path><path fill-rule="evenodd" clip-rule="evenodd" d="M83.293 83.25c-0.2 1.473-1.36 5.563 0 7.425-2.467-0.196-5.818-0.074-7.837 1.237C77.57 88.527 80.372 85.829 83.293 83.25z" fill="#883d1a" data-fill-palette-color="quaternary"></path></g></g></svg></g></svg></g><g></g></svg></g></svg></g></svg></g></svg></g><defs></defs></svg><rect width="342.8515585177538" height="342.8515585177538" fill="none" stroke="none" visibility="hidden"></rect></g></svg></g></svg>